<svg xmlns="http://www.w3.org/2000/svg" viewBox="0 0 48 48">
  <rect width="48" height="48" rx="9" fill="#6B1414"/>
  <g stroke="#EDE7E3" stroke-width="1.7" stroke-linecap="round">
    <path d="M24 24 24 8M24 24 40 24M24 24 24 40M24 24 8 24"/>
    <path d="M24 24 35.3 12.7M24 24 35.3 35.3M24 24 12.7 35.3M24 24 12.7 12.7"/>
  </g>
  <g fill="#C9A227">
    <circle cx="24" cy="8" r="2.9"/><circle cx="40" cy="24" r="2.9"/>
    <circle cx="24" cy="40" r="2.9"/><circle cx="8" cy="24" r="2.9"/>
  </g>
  <g fill="#EDE7E3">
    <circle cx="35.3" cy="12.7" r="2.3"/><circle cx="35.3" cy="35.3" r="2.3"/>
    <circle cx="12.7" cy="35.3" r="2.3"/><circle cx="12.7" cy="12.7" r="2.3"/>
  </g>
  <circle cx="24" cy="24" r="5.6" fill="#C9A227"/>
</svg>
